<svg width="67" height="67" viewBox="0 0 67 67" fill="none" xmlns="http://www.w3.org/2000/svg">
<path d="M0 22.2496V36.0907C0 41.3027 3.63475 44.7476 8.375 44.7476C10.6809 44.7476 12.7356 43.8655 14.2208 42.3189V44.3735H17.5038V22.2496H14.1872V35.8952C14.1872 39.4044 11.8143 41.7745 8.75188 41.7745C5.65313 41.7745 3.31929 39.4658 3.31929 35.8952V22.2524H0V22.2496ZM20.77 22.2496V44.3735H23.9246V42.3496C25.379 43.8348 27.4337 44.7504 29.6754 44.7504C30.7849 44.7608 31.8855 44.551 32.9134 44.1332C33.9413 43.7154 34.8762 43.0979 35.6638 42.3164C36.4515 41.5349 37.0764 40.605 37.5024 39.5805C37.9283 38.5559 38.1469 37.4571 38.1453 36.3475C38.1505 35.2353 37.9349 34.1331 37.5109 33.1049C37.0869 32.0767 36.4631 31.1429 35.6754 30.3576C34.8878 29.5723 33.9521 28.9512 32.9227 28.5303C31.8932 28.1094 30.7904 27.897 29.6782 27.9055C28.6126 27.9042 27.5575 28.1161 26.5751 28.5289C25.5927 28.9417 24.7029 29.547 23.9581 30.3091V22.2524H20.7672L20.77 22.2496ZM48.321 27.939C43.6114 27.939 40.0437 31.7636 40.0437 36.314C40.0437 41.1157 43.7678 44.7169 48.6029 44.7169C51.5425 44.7169 53.9434 43.4244 55.5542 41.2748L53.2482 39.5691C52.0478 41.1799 50.4678 41.9336 48.6029 41.9336C45.8866 41.9336 43.7091 39.9795 43.2653 37.3553H56.3777V36.314C56.3777 31.5123 52.9663 27.939 48.321 27.939ZM65.8945 28.1288C64.1246 28.1288 62.8293 28.9496 62.0392 30.2449V28.2545H58.8818V44.3735H62.0699V35.2029C62.0699 32.7072 63.5886 31.0992 65.674 31.0992H67V28.126H65.8945V28.1288ZM48.254 30.7195C50.6269 30.7195 52.6201 32.361 53.1561 34.8232H43.3267C43.8934 32.361 45.8838 30.7195 48.254 30.7195ZM29.4605 30.753C32.4922 30.753 34.988 33.218 34.988 36.3475C34.9939 37.8207 34.4153 39.2361 33.3791 40.2833C32.3429 41.3305 30.9336 41.924 29.4605 41.9336C28.7276 41.9347 28.0018 41.7909 27.3248 41.5102C26.6478 41.2296 26.033 40.8178 25.5159 40.2986C24.9987 39.7794 24.5894 39.1629 24.3115 38.4848C24.0336 37.8067 23.8926 37.0803 23.8967 36.3475C23.8915 35.6142 24.0316 34.8871 24.3088 34.2082C24.586 33.5293 24.9949 32.912 25.5119 32.392C26.0289 31.8719 26.6437 31.4593 27.3209 31.178C27.9981 30.8967 28.7243 30.7522 29.4577 30.753H29.4605Z" fill="black"/>
</svg>
