<svg width="24" height="24" viewBox="0 0 24 24" fill="none" xmlns="http://www.w3.org/2000/svg">
<path d="M9.367 2.25H14.633C15.725 2.25 16.591 2.25 17.288 2.307C18.002 2.365 18.605 2.487 19.157 2.767C20.0506 3.22284 20.777 3.94992 21.232 4.844C21.513 5.394 21.635 5.998 21.693 6.712C21.75 7.409 21.75 8.275 21.75 9.367V14.633C21.75 15.725 21.75 16.591 21.693 17.288C21.635 18.002 21.513 18.605 21.233 19.157C20.7774 20.0505 20.0507 20.7768 19.157 21.232C18.605 21.513 18.002 21.635 17.288 21.693C16.591 21.75 15.725 21.75 14.633 21.75H9.367C8.275 21.75 7.409 21.75 6.712 21.693C5.998 21.635 5.395 21.513 4.844 21.233C3.95014 20.7776 3.22341 20.0509 2.768 19.157C2.487 18.605 2.365 18.002 2.307 17.288C2.25 16.591 2.25 15.725 2.25 14.633V9.367C2.25 8.275 2.25 7.409 2.307 6.712C2.365 5.998 2.487 5.395 2.767 4.844C3.22267 3.94999 3.94977 3.22324 4.844 2.768C5.394 2.487 5.998 2.365 6.712 2.307C7.409 2.25 8.275 2.25 9.367 2.25ZM6.834 3.802C6.214 3.852 5.829 3.949 5.524 4.104C4.91263 4.41556 4.41556 4.91263 4.104 5.524C3.949 5.829 3.853 6.214 3.802 6.834C3.751 7.464 3.75 8.268 3.75 9.4V14.6C3.75 15.733 3.75 16.537 3.802 17.166C3.852 17.786 3.949 18.171 4.104 18.476C4.41556 19.0874 4.91263 19.5844 5.524 19.896C5.829 20.051 6.214 20.147 6.834 20.198C7.226 20.23 7.685 20.242 8.25 20.248V3.752C7.685 3.757 7.226 3.77 6.834 3.802Z" fill="white"/>
</svg>
